# xmcd
#
# Track frame offsets:
# 150
# 20964
# 41520
# 55845
# 66506
# 81012
# 92732
# 105096
# 117610
# 128281
# 138130
# 149484
# 161813
# 175915
# 187534
# 203673
# 253688
# 265839
# 278199
# 291507
#
# Disc length: 4126 seconds
#
#
# Revision: 0
# Processed by: cddbd v1.5.1PL0 Copyright (c) Steve Scherf et al.
# Submitted via: FreeRIP 2.942 
#
DISCID=22101c14
DTITLE=Creedence Clearwater Revival - Chronicle Volume I
DYEAR=1991
DGENRE=Rock
TTITLE0=Susie Q
TTITLE1=I Put A Spell On You
TTITLE2=Proud Mary
TTITLE3=Bad Moon Rising
TTITLE4=Lodi
TTITLE5=Green River
TTITLE6=Commotion
TTITLE7=Down On The Corner
TTITLE8=Fortunate Son
TTITLE9=Travelin' Band
TTITLE10=Who'll Stop The Rain
TTITLE11=Up Around The Bend
TTITLE12=Run Through The Jungle
TTITLE13=Lookin' Out My Backdoor
TTITLE14=Long As I Can See The Light
TTITLE15=I Heard It Through The Grapevine
TTITLE16=Have You Ever Seen The Rain
TTITLE17=Hey Tonight
TTITLE18=Sweet Hitch-Hiker
TTITLE19=Someday Never Comes
EXTD=Daniel YEAR: 1991
EXTT0=
EXTT1=
EXTT2=
EXTT3=
EXTT4=
EXTT5=
EXTT6=
EXTT7=
EXTT8=
EXTT9=
EXTT10=
EXTT11=
EXTT12=
EXTT13=
EXTT14=
EXTT15=
EXTT16=
EXTT17=
EXTT18=
EXTT19=
PLAYORDER=
